<?xml version="1.0" encoding="utf-8"?>
<!-- Generator: Adobe Illustrator 19.0.0, SVG Export Plug-In . SVG Version: 6.00 Build 0)  -->
<svg version="1.1" id="Layer_1" xmlns="http://www.w3.org/2000/svg" xmlns:xlink="http://www.w3.org/1999/xlink" x="0px" y="0px"
	 viewBox="0 0 960 560" style="enable-background:new 0 0 960 560;" xml:space="preserve">
<style type="text/css">
	.st0{fill:#5E6A71;}
</style>
<g>
	<path class="st0" d="M371.9,346.8c-2.2-1.6-4.4-1.2-6.5-0.8c-0.8,0.1-1.4,1.2-2,2c-2.8,3.6-5.4,7.4-8.3,10.9
		c-7.8,9.1-17.6,15.3-28.6,19.8c-12.1,4.9-24.7,6.3-37.6,5.1c-7.8-0.7-15.4-2.9-22.6-5.9c-7.9-3.3-15-7.7-21.1-13.7
		c-8.1-8-13.1-17.8-16.2-28.7c-4.8-16.8-3.1-33.2,3.1-49.3c3.2-8.4,8.7-15.3,15.4-21.2c0.5-0.5,1.1-0.9,1.8-1.3
		c0.3-0.2,0.6-0.2,1.4-0.5c-1.2,8-3.2,15.5-4.7,23.1c-1.5,7.8-3.3,15.6-5,23.3c-1.6,7.6-3.3,15.3-4.9,22.8c1.6,1.2,3.1,0.8,4.5,0.8
		c18.2,0,36.5,0,54.7,0c30.8,0,61.6,0,92.4,0c61.7,0.1,123.5-0.3,185.2,0.4c42.9,0.4,85.8,0,128.6,0.4c1.2,0,2.4,0,3.4,0
		c1,3.1,1.2,7.4,0.5,11.7c-0.1,0.1-0.2,0.2-0.3,0.3c-0.1,0.1-0.2,0.1-0.3,0.1c-0.2,0-0.5,0.1-0.7,0.1c-0.1,0-0.2,0-0.4,0
		c-0.4,0-0.7,0-1.1,0c-82.2,0-164.3,0-246.5,0c-0.2,0-0.5,0-0.7,0c-0.1,0-0.2,0-0.4,0c-0.1,0-0.2,0-0.4,0.1c-0.1,0-0.2,0.1-0.7,0.2
		c-4.6,9.9-9.4,20-15.8,29.7c11.5,15.2,23.4,30,35.1,45.3c-8.8,9.8-17.5,19.4-26.4,29.3c-8.3-4.9-16.2-10.1-24.3-15.1
		c-8-4.9-15.9-10-24-15c-0.9,0.6-1.8,1-2.5,1.5c-8,6-16.4,11.5-25.2,16.3c-0.4,0.2-0.8,0.6-1.2,0.7c-1.7,0.7-1.9,1.9-1.7,3.5
		c0.5,3.5,1,6.9,1.5,10.4c1.4,9.9,2.8,19.8,4.2,29.7c0.5,3.7,1.1,7.4,1.5,11.1c0.4,2.9,0.3,3-2.4,3.9c-9.3,3-18.6,6.1-27.8,9.1
		c-2.2,0.7-4.4,1.3-6.9,2.1c-1-1.7-2-3.4-3-5.2c-7.5-14.2-15-28.4-22.5-42.6c-1.4-2.7-1.4-2.6-4.4-2.3c-4.6,0.4-9.1,0.8-13.7,1
		c-6.5,0.3-13,0.5-19.9,0.8c-7,17.1-14,34.4-21.1,52c-1.4-0.1-2.7,0-3.9-0.3c-10.7-2.3-21.4-4.6-32.1-6.9c-2.7-0.6-2.7-0.6-2.7-3.3
		c0.2-6,0.4-12.1,0.6-18.1c0.1-3.6,0.4-7.2,0.5-10.8c0.3-7.2,0.5-14.5,0.7-21.7c0-0.4,0-0.7,0-1.1c0.2-1.8-0.5-2.9-2.2-3.7
		c-2.9-1.2-5.7-2.7-8.5-4c-7.8-3.6-15.5-7.3-22.7-12c-0.6-0.4-1.3-0.7-2.1-1.1c-14.9,11.6-29.8,23.3-45,35.1
		c-9.8-8.6-19.4-17.4-29.3-26.3c0.6-1.1,1.1-2.1,1.7-3.1c8.9-14.3,17.7-28.5,26.6-42.7c0.6-0.9,1.1-1.9,1.7-2.9
		c-7.3-9.6-14-19.7-19.6-30.4c-9.7,1.3-19.1,2.6-28.5,3.9c-9.3,1.3-18.6,2.6-28.1,3.9c-4.4-12.5-8.2-24.9-12.4-37.5
		c16.8-9.2,33.6-17.8,50.4-27c-0.3-3.3-0.6-6.5-0.9-9.7c-0.2-2.3-0.5-4.6-0.6-6.8c-0.2-3.2-0.4-6.5-0.5-9.7c0-2,0.3-4.1,0.4-6.1
		c0.2-3.5,0.1-3.7-3.2-5.1c-15.3-6.2-30.6-12.4-45.9-18.6c-1.2-0.5-2.4-1-3.8-1.6c0.7-6.6,2.6-12.9,3.8-19.2
		c1.2-6.4,2.7-12.7,4.1-19.4c3.7,0,7.1-0.1,10.6,0c6,0.2,12.1,0.5,18.1,0.7c8.7,0.3,17.4,0.6,26,0.8c0.7,0,1.4,0,2.3,0
		c0.4-0.7,0.9-1.4,1.2-2.1c4-9.7,8.7-19.1,14.3-28c1.1-1.7,0.6-2.8-0.5-4.2c-7-8.9-14-17.9-20.9-26.8c-4.1-5.3-8.3-10.6-12.7-16.2
		c8.8-9.8,17.6-19.6,26.5-29.5c16.3,10.1,32.3,20.1,48.5,30.2c2.2-1.6,4.4-3.1,6.5-4.7c6.8-5,13.9-9.6,21.4-13.5
		c2.1-1.1,2.6-2.4,2.3-4.6c-0.9-5.8-1.7-11.7-2.5-17.5c-1.5-11-3.1-22-4.6-33c-0.1-0.9,0-1.9,0-3.1c3.9-1.7,8.1-2.8,12.2-4.1
		c4.3-1.3,8.4-2.9,12.7-4.2c4.1-1.2,8-3.1,12.5-3.7c8.9,16.8,17.8,33.4,26.7,50c3.3-0.3,6.4-0.6,9.5-0.9c1.8-0.2,3.6-0.4,5.4-0.5
		c3.8-0.3,7.7-0.6,11.5-0.6c2.2,0,4.5,0.4,6.8,0.6c0,1,0.1,1.7,0,2.4c-2.6,12.5-5.3,25-7.9,37.5c-0.5,2.3-0.9,2.5-3.9,2.7
		c-8.3,0.5-16.6,1.6-24.7,3.4c-23.7,5.4-44.7,16.1-62.7,32.3c-16.9,15.2-29.5,33.4-37.6,54.7c-4.7,12.4-7.7,25.1-8.8,38.3
		c-0.3,3.8-0.6,7.7-0.6,11.6c0.1,29,8.2,55.7,24.5,79.7c15.1,22.2,35,38.7,59.4,49.8c10.5,4.8,21.3,8.5,32.5,10.8
		c7.7,1.6,15.4,2.7,23.3,2.5c4.8-0.1,9.7,0.1,14.5-0.2c17.1-1.2,33.5-5.3,49.1-12.6c11.5-5.4,22.1-12.3,31.8-20.6
		c11.6-9.8,21.3-21.3,29.3-34.2c0.6-1,1-2.1,1.7-3.5c-1.2-0.1-2-0.2-2.8-0.2c-7.6,0-15.2,0.1-22.8-0.1c-2.2,0-3.3,0.8-4.1,2.7
		c-1.4,3.2-2.9,6.4-4.7,9.4c-9,15.8-21.7,27.5-38.3,35c-9.4,4.3-19,7.6-29.2,9.2c-8.4,1.3-16.8,1.4-25.2,0.5
		c-9.9-1-19.4-3.5-28.6-7.5c-11.1-4.8-21.2-11-29.9-19.5c-8-7.8-13.7-17.1-18-27.3c-1.4-3.4-2.8-6.9-4.3-10.7
		c-1.1,0.3-2,0.4-2.8,0.7c-6.8,3.2-14,3.9-21.2,3c-9.2-1.2-15.1-6.9-18.7-15.3c-0.8-1.8-1.3-3.7-0.6-5.9c0.6,0.4,1.1,0.8,1.6,1.1
		c1.7,1.2,3.2,2.6,5,3.5c4.2,1.9,8.9,0.4,11.5-3.3c0.8-1.2,1.5-2.5,2-3.8c1.4-3.9,2.7-7.7,3.8-11.7c2.2-7.7,6.6-13.9,13.2-18.5
		c1.1-0.8,2.1-1.5,3.4-2.5c-1.4-1.3-2.8-1.3-4.2-1.4c-10.5-0.8-19.7-4.7-27.3-12c-6-5.8-10.6-12.5-12.6-20.8c-1.2-5-1-10,0.3-15
		c0.3-1.1,0.5-2.4,1.7-3c1.2,0.8,1.1,2.1,1.4,3.2c0.3,1,0.5,2.1,0.8,3.2c1.1,4.3,4.3,7.4,9.8,7.6c2.8,0.1,5.6,0.2,8.3-0.1
		c4.7-0.5,8.8-2.6,12.2-5.8c9.2-8.8,20.5-12.9,32.8-14.5c2.9-0.4,5.7-0.8,8.6-0.2c1.5,0.3,3.1,0.4,4.9-0.5c-0.5-0.7-0.8-1.3-1.2-1.7
		c-0.6-0.4-1.2-0.7-1.9-1c-7.8-3.1-14.3-8-19.5-14.5c-2.6-3.2-4.8-6.6-7.2-10c-2.6-3.7-3.5-7.9-3.2-12.4c0.3-4.4,1.3-8.6,3-12.6
		c0.2-0.4,0.4-0.8,0.9-1.6c1,2.2,1.8,3.9,2.5,5.6c1.1,2.6,2.5,4.9,4.4,7c2.7,2.9,6.1,4.2,10,4.3c4.7,0.2,9.4-0.6,14-1.3
		c8.1-1.2,16.1-1.6,24,1.1c2,0.7,4,1.6,6,2.5c1.5,0.7,1.9,1.8,1.5,3.6c-2.2,10-4.2,20.1-6.3,30.1c-0.2,1.1-0.5,2.1-0.6,3.2
		c-0.4,2.4-1.7,3.8-3.9,4.7c-9.5,4.2-17.9,10.1-25.3,17.2c-8.3,7.9-13.7,17.7-17.6,28.3c-2.5,6.8-4.2,13.9-4.6,21.1
		c-0.3,6-0.6,12.1-0.5,18.1c0.6,21.7,9.3,39.7,25,54.4c11.9,11.3,26.3,18.2,42.2,21.9c9.6,2.2,19.3,2.8,29.1,2.1
		c13.2-0.9,25.4-5.2,36.7-12.1c6.2-3.8,12.2-7.8,17.3-13c4.3-4.3,7.8-9.2,10.6-14.6C368.8,353.4,370.3,350.1,371.9,346.8z
		 M253.7,345.9c0.6,1.2,0.9,2,1.4,2.6c2.5,3.4,5.2,6.6,8.4,9.4c8.4,7.3,18.1,11.4,29.1,12.4c9.4,0.8,18.8-0.1,27.9-2.9
		c10.6-3.3,19.4-9,25.8-18.2c0.6-0.8,1-1.8,1.8-3.1c-1.7-0.1-2.8-0.3-4-0.3c-6.2,0-12.3,0.1-18.5,0c-3.6-0.1-6.9,0.5-10.1,2.2
		c-4.8,2.5-10.1,3.3-15.4,3.2c-6.2-0.2-12.1-1.8-17.8-4.4c-1.4-0.6-3-1-4.5-1c-7.1-0.1-14.2-0.1-21.4-0.1
		C255.8,345.7,255.1,345.8,253.7,345.9z"/>
	<path id="XMLID_26_" class="st0" d="M372.7,169.1c-7.7,1.5-15.2,0.6-22.7,0.9c-0.7-1.8,0-3.3,0.3-4.8c3.2-15.2,6.5-30.4,9.7-45.7
		c0.2-1.1,0.3-2.1,0.6-3.9c-0.7,1-1.2,1.4-1.4,1.9c-6.3,13.7-12.6,27.4-18.8,41.1c-1.4,3.1-2.9,6.1-4.2,9.2c-0.5,1-1.1,1.5-2.2,1.5
		c-6.5,0-13,0-19.7,0c-1.2-3.5-0.9-7.1-1.1-10.5c-0.5-6.7-0.8-13.5-1.3-20.2c-0.1-0.8-0.3-1.6-0.6-3.3c-0.6,1.7-1,2.7-1.2,3.6
		c-4.4,20.3-8.8,40.5-13.2,60.8c-5.4,25.1-10.9,50.2-16.4,75.3c-3.8,17.3-7.5,34.7-11.2,52c-0.3,1.2-0.6,2.3-0.9,3.4
		c-2.9,0.5-24.8,0.6-28.3,0.1c-0.6-1.3-0.1-2.5,0.2-3.8c5.3-25.1,10.7-50.3,16-75.4c5.9-27.8,11.8-55.7,17.8-83.5
		c5-23.5,10.1-46.9,15.1-70.4c0.4-1.6,0.7-3.3,1-4.8c2.8-0.7,30.4-0.9,37-0.3c0.2,0.7,0.6,1.4,0.7,2.2c0.4,6.6,0.8,13.2,1.1,19.9
		c0.4,8.2,0.8,16.4,1.2,24.6c0.1,1.2,0.3,2.3,0.6,4.4c3.1-6.2,5.1-12,7.7-17.5c2.6-5.6,4.9-11.3,7.4-16.9c2.5-5.6,5-11.2,7.4-16.8
		c4.2-0.5,32.9-0.4,35.9,0.2C383.6,117.9,378.1,143.5,372.7,169.1z"/>
	<path id="XMLID_25_" class="st0" d="M458,169c5.4-25.7,10.8-51.2,16.2-76.6c2.9-0.7,27.6-0.8,32.7-0.3c0.2,0.9,0.5,1.9,0.6,3
		c0.6,11,1.2,21.9,1.8,32.9c0.3,4.8,0.5,9.6,1.1,14.5c3.1-5.3,5-11.1,7.6-16.6c2.6-5.6,5-11.2,7.5-16.9c2.5-5.6,4.9-11.2,7.4-16.9
		c11.9,0,23.7,0,35.9,0c-5.5,25.8-10.9,51.4-16.3,76.8c-3.4,0.8-19.6,0.8-22.9,0c1.2-8.9,3.6-17.6,5.3-26.5c1.7-8.7,3.7-17.4,5-26.3
		c-0.3,0.5-0.8,1-1,1.6c-7.5,16.3-15,32.7-22.4,49c-0.9,2.1-2,2.9-4.3,2.9c-5.2-0.2-10.4,0-15.6-0.1c-3.2,0-3.3-0.1-3.5-3.2
		c-0.6-11-1.2-21.9-1.8-32.9c-0.2-4.2-0.5-8.4-0.7-12.6c0-0.6-0.2-1.1-0.5-2.4c-0.6,1-1,1.4-1.1,1.9c-3.2,15.2-6.4,30.5-9.5,45.7
		c-0.2,1.1-0.5,2.1-0.8,3C475.8,169.6,461.8,169.6,458,169z"/>
	<path id="XMLID_24_" class="st0" d="M561.2,330.2c-7.2,0-14.1,0-21.2,0c0.1-1.3,0.1-2.3,0.3-3.3c4.5-21.1,8.9-42.3,13.4-63.4
		c0.7-3.4,1.4-6.8,2.2-10.5c1.9,0,3.6,0,5.2,0c4.2,0,8.5,0.1,12.7,0c1.8,0,2.8,0.6,3.7,2.1c7.6,12.9,15.3,25.7,22.9,38.6
		c0.2,0.3,0.4,0.5,0.9,1.1c0.4-0.9,0.8-1.6,1-2.3c2.2-10.4,4.4-20.8,6.6-31.2c0.6-2.7,1.2-5.4,1.9-8.2c7.2,0,14.2,0,21.1,0
		c0,2.9-14.6,73.1-16.1,77.5c-2.9,0.6-5.9,0.2-8.9,0.3c-3,0.1-6,0-9.1,0c-0.8-1.2-1.5-2.2-2.2-3.4c-7.5-12.7-14.9-25.4-22.4-38.1
		c-0.6-1-1-2.2-2.6-2.8C567.2,301.2,564.5,315.6,561.2,330.2z"/>
	<path class="st0" d="M305.4,171.9c1-0.1,1.7-0.1,2.4-0.1c9.7,0,19.3-0.2,29,0.1c4.7,0.1,9.4,0.5,14,1.4c6.3,1.3,11,4.8,13,11.2
		c2.4,7.4-0.3,15.4-6.8,19.6c-2.3,1.5-5,2.4-7.5,3.5c-0.8,0.4-1.7,0.7-3.1,1.2c1.9,0.7,3.2,1.2,4.6,1.7c4.9,1.9,7.8,5.4,9.1,10.4
		c2.2,8.8-1,16.9-8.7,22.4c-4.4,3.2-9.4,4.9-14.8,5.4c-4.7,0.5-9.4,0.8-14,0.9c-10,0.1-20,0-30.1,0c-0.9,0-1.9-0.1-3.1-0.2
		c0.1-1.1,0.1-2,0.2-2.9c3.4-16.2,6.8-32.3,10.2-48.5c1.6-7.7,3.2-15.3,4.8-23C304.7,174.3,305,173.3,305.4,171.9z M315.8,233.5
		c5.4,0.8,10.5,0.9,15.4-1.1c0.7-0.3,1.3-0.7,1.8-1.2c4.2-3.7,3.2-10.9-1.8-12.5c-3.3-1-6.7-0.9-10-0.6c-1.1,0.1-2.2,0.6-2.4,1.8
		C317.7,224.4,316.8,228.8,315.8,233.5z M322.6,202c3.7,0,6.8,0.2,9.9-0.1c2.4-0.2,4.2-1.6,5.7-3.5c2.8-3.5,1.1-9.1-3.2-10.2
		c-2.4-0.6-5-0.6-7.5-0.7c-1.9,0-2.1,0.3-2.5,2.3c-0.6,2.6-1.1,5.2-1.7,7.7C323.1,198.9,322.9,200.2,322.6,202z"/>
	<path id="XMLID_20_" class="st0" d="M704.7,275.2c-1.6-0.6-3.2-1.2-4.8-1.8c-7-2.6-14.2-3.6-21.6-1.9c-10.6,2.4-17.2,9.8-18.3,20.6
		c-0.3,2.5-0.3,5.1-0.2,7.6c0.4,7.3,4.9,12.4,12.1,13.8c2.1,0.4,4.1-0.1,6.1-0.6c0.5-0.1,1.1-0.7,1.2-1.1c1.1-3.2,1.5-6.5,2.2-9.9
		c-4.7-1.2-9.2,0.1-13.7-0.9c0.9-5.7,2-11.2,3.5-16.7c12.5,0,24.8,0,37.4,0c-0.3,1.9-0.6,3.7-1,5.4c-2.3,11-4.7,21.9-7,32.9
		c-0.5,2.2-1.5,3.5-3.6,4.5c-5.6,2.4-11.4,3.9-17.4,4.6c-3.6,0.4-7.2,0.8-10.8,0.7c-7.5-0.3-14.8-1.9-21.2-6.2
		c-5.6-3.7-9.4-8.7-11.1-15.1c-4.7-17.9-1.3-33.7,12.4-46.8c5.6-5.4,12.5-8.6,20-10.5c6.4-1.7,13-2.6,19.7-2.1
		c6.4,0.4,12.7,1.3,18.8,3.3c2,0.7,2.3,1,1.9,2.8c-1.2,5.5-2.5,11.1-3.8,16.6C705.4,274.4,705.2,274.6,704.7,275.2z"/>
	<path class="st0" d="M325.2,296.5c1.8,1.4,3,2.3,4.2,3.3c2.3,1.9,3.9,4.4,4.7,7.2c2.3,7.5,3.6,15.2,5.1,22.9
		c-2.7,0.7-20,0.9-24.6,0.2c-0.5-2.8-1-5.7-1.6-8.7c-0.5-2.8-0.9-5.7-1.5-8.5c-0.4-1.7-1.1-3.4-1.9-5.1c-1.2-2.5-3.6-3.5-6.1-4
		c-1.2-0.2-1.9,0.4-2.2,1.4c-0.4,1.3-0.6,2.6-0.9,3.9c-1.3,6-2.5,12-3.8,18.1c-0.2,1.2-0.6,2.3-0.9,3.4c-2.9,0.6-18.3,0.7-23.1,0.2
		c0.1-0.8,0.1-1.6,0.3-2.4c5-23.7,10-47.4,15-71.2c0.1-0.5,0.2-0.9,0.3-1.4c0.7-2.6,0.8-2.7,3.4-2.7c10.6,0,21.3-0.1,31.9,0
		c3.6,0,7.2,0.8,10.6,2.1c15.3,6.2,15.7,22.9,7.3,32.2c-3.5,3.9-7.8,6.4-12.7,8C327.7,295.6,326.7,296,325.2,296.5z M305.3,286.7
		c3.1,0.2,5.8,0.3,8.5-0.2c2.5-0.5,4.5-1.8,6-3.7c2.2-2.7,2.4-5.6,1.2-8.8c-1.1-3-3.5-4.2-6.4-4.6c-1.8-0.2-3.6,0-5.5,0
		C307.7,275.1,306.2,280.6,305.3,286.7z"/>
	<path class="st0" d="M900,135.4c0.3,0.4,0.3,0.7,0.5,0.8c5.2,3,7.8,7.8,9.1,13.4c1.5,6.5,2.8,12.9,4.1,19.4
		c-3,0.7-20.8,0.7-24.6,0.1c-0.3-1.2-0.7-2.6-1-4c-0.6-3.4-1-6.9-1.6-10.4c-0.4-2.1-0.9-4.3-1.7-6.3c-1.4-3.7-4.1-5.9-8.5-5.8
		c-0.3,0.8-0.7,1.6-0.9,2.5c-1.5,6.7-2.9,13.4-4.3,20.2c-0.3,1.3-0.7,2.5-1,3.7c-3,0.6-19.1,0.7-22.9,0.2
		c0.1-3.1,14.8-73.4,16.2-77.5c2,0.1,4,0.2,6,0.2c6.3-0.1,12.5-0.7,18.8-0.4c6.1,0.2,12.3,0.4,18.2,2c6.7,1.9,12.2,5.5,13.7,12.5
		c2.1,9.8,0.4,18.1-9.4,24.5c-2.4,1.6-5.2,2.5-7.8,3.7C902,134.6,901,135,900,135.4z M879.5,124.9c4.5,1.7,8.3,1,11.9-1
		c4.5-2.5,5.9-7.4,3.6-12.1c-0.9-1.9-2.5-3.1-4.4-3.3c-2.3-0.3-4.7-0.7-7.3,0.2C882,114,880.8,119.4,879.5,124.9z"/>
	<path class="st0" d="M360.2,249.6c1.2-2.3,2.1-4.2,3.2-6.1c12.7-22.9,25.4-45.8,38.1-68.7c1-1.9,2.2-2.6,4.2-2.5
		c8,0.1,15.9,0,23.9,0c0.7,0,1.4,0.1,2.4,0.2c0.3,0.8,0.7,1.7,0.8,2.6c0.9,7.6,1.7,15.1,2.5,22.7c0.8,7.2,1.6,14.4,2.4,21.6
		c0.9,8,1.8,16.1,2.7,24.1c0.2,1.9,0.4,3.8,0.6,5.7c-2.7,0.7-18.1,0.8-23.3,0.3c-1-2-0.9-4.3-1-6.6c-0.1-2.2-0.5-4.3-0.7-6.6
		c-1-0.1-1.8-0.3-2.7-0.3c-6,0-12.1,0.1-18.1-0.1c-2.2-0.1-3.3,0.8-4.1,2.7c-1.1,2.7-2.5,5.3-3.7,7.9c-0.5,1.1-1.1,2.1-1.7,3.2
		C377.3,249.6,369.1,249.6,360.2,249.6z M413.7,192.4c-2.7,3.1-11.2,21.3-11.8,23.9c3.9,0.7,10.4,0.5,12.8-0.4
		C414.4,208.2,414.1,200.3,413.7,192.4z"/>
	<path class="st0" d="M575.2,172.6c2.8,25.3,5.6,50.3,8.4,75.3c0,0.4-0.2,0.9-0.3,1.3c-2.7,0.6-16.6,0.8-22.5,0.3
		c-1.6-1.9-1-4.3-1.3-6.5c-0.3-2.1-0.5-4.3-0.7-6.7c-0.9-0.1-1.7-0.4-2.4-0.4c-6.2,0-12.3,0-18.5-0.1c-1.8,0-2.9,0.6-3.6,2.2
		c-1.8,3.8-3.7,7.6-5.6,11.4c-8.5,0-16.8,0-25.4,0c0.4-0.9,0.6-1.8,1.1-2.6c10.6-19.2,21.3-38.4,32-57.6c2.6-4.7,5.3-9.5,7.8-14.3
		c1-1.9,2.2-2.8,4.5-2.8c7.8,0.1,15.7,0,23.6,0.1C572.9,172.3,573.7,172.5,575.2,172.6z M557.1,216.7c0.8-4.4,0.1-8.4-0.2-12.3
		c-0.3-3.9,0.5-8.1-1.1-12.2c-2.6,4.2-10.5,21.4-11.2,24.3c0.6,0.1,1.2,0.2,1.8,0.2C549.8,216.7,553.3,216.7,557.1,216.7z"/>
	<path class="st0" d="M384.3,253.1c10,0,19.5,0,29,0c0.9,2.6,9,73.1,8.8,76.6c-2.4,0.8-18.2,1-23.3,0.3c-0.3-2.1-0.6-4.4-0.8-6.6
		c-0.2-2.1,0.1-4.4-1.2-6.5c-0.8-0.1-1.8-0.2-2.7-0.2c-5.7,0-11.4,0.1-17-0.1c-2.3-0.1-3.5,0.8-4.4,2.8c-1.7,3.9-3.6,7.6-5.4,11.4
		c-8.5,0-16.9,0-25.2,0c-0.1-0.1-0.1-0.2-0.2-0.3c0-0.1-0.1-0.3,0-0.3C356,304.5,370.1,278.8,384.3,253.1z M396,297.9
		c0.1-7.6-0.8-21.6-1.6-24.1c-2,2.3-10.6,21-11.1,24C387.5,298,391.6,298,396,297.9z"/>
	<path class="st0" d="M642.3,169.2c-8.2,0-15.8,0-23.7,0c-0.3-3.2-0.7-6.2-1-9.3c0-0.4,0-0.7,0-1.1c-0.2-3.1-0.2-3.1-3.5-3.2
		c-1.7,0-3.4,0-5.1,0c-3.7,0-7.5,0.2-11.2-0.1c-3-0.2-4.6,1-5.7,3.7c-1.1,2.8-2.7,5.4-4,8.1c-0.6,1.3-1.4,2.1-3,2.1
		c-7.2-0.1-14.5,0-21.7-0.1c-0.4,0-0.9-0.2-1.3-0.3c1.2-3.8,31.9-59.8,42.1-76.8c2.7-0.6,24.9-0.7,29.2-0.1
		c1.3,6.2,1.6,12.7,2.5,19.1c0.8,6.3,1.4,12.7,2.1,19c0.7,6.5,1.5,12.9,2.3,19.4C640.9,156.1,641.5,162.4,642.3,169.2z M614.6,112
		c-0.8,1-1.3,1.4-1.5,1.9c-3.3,7.4-7.1,14.7-10.2,22.3c3.8,0.9,10.6,0.8,13.3-0.3C615.6,128.3,615.1,120.5,614.6,112z"/>
	<path id="XMLID_7_" class="st0" d="M819.5,120.9c7.6,0.5,15-0.1,22.2,0.3c0.8,3.1-0.7,11.6-3.2,18.3c-1.2,0.1-2.5,0.2-3.8,0.2
		c-5.3,0-10.6,0-15.9,0c-3,0-3.3,0.2-3.9,3.1c-0.6,2.7-1.6,5.3-1,8.3c4.3,0.5,8.5,0.2,12.7,0.2c4.2,0.1,8.4-0.1,12.9,0.2
		c-0.8,6.2-2.2,11.9-3.5,17.5c-3.5,0.6-46.8,0.6-49.8,0c0-2.5,14.5-72.2,16-76.7c3-0.6,44.5-0.6,47.6,0c0.3,3.1-1.6,12.6-3.5,17.5
		c-1.2,0-2.5,0.1-3.8,0.2c-5.9,0-11.8,0-17.8,0c-3.1,0-3.1,0.1-3.7,3.2C820.5,115.6,820,118,819.5,120.9z"/>
	<path id="XMLID_6_" class="st0" d="M715.2,95.2c-1.2,6-2.4,11.9-3.6,18.2c-1.7-0.7-3.1-1.2-4.5-1.8c-4.1-1.9-8.3-3.3-12.8-3.6
		c-1.9-0.1-3.8,0.2-5.7,0.5c-2.3,0.5-3.8,2-4.3,4.4c-0.4,2.2,0.4,3.9,1.9,5.1c1.3,1.2,3,2,4.5,3c3.2,2,6.5,3.8,9.5,6
		c8.9,6.4,11.2,15.1,8.6,25.2c-1.8,7.3-6.4,12.3-13.3,15.1c-5.3,2.2-10.8,3.3-16.5,3.6c-9.5,0.5-18.4-1.6-27.1-5.3
		c-0.6-3.4,0.7-6.4,1.3-9.6c0.6-3.2,1.4-6.3,2.3-9.8c1.4,0.8,2.5,1.4,3.7,2.1c5.5,3.2,11.3,5.3,17.8,5.1c1,0,1.9-0.2,2.8-0.4
		c2.2-0.5,4.2-1.4,4.6-4c0.5-2.7,0-5.1-2.5-6.6c-2.7-1.6-5.4-3.2-8.2-4.6c-3-1.6-5.9-3.3-8.3-5.7c-4-3.9-6.1-8.6-6.1-14.2
		c0-3.6,0.2-7.2,1.5-10.7c2.4-6.7,7.3-11,13.6-13.8c4.6-2,9.4-3,14.4-3.1c8.3-0.1,16.4,0.7,24.1,3.6
		C713.6,94.4,714.3,94.8,715.2,95.2z"/>
	<path id="XMLID_5_" class="st0" d="M504.4,254.7c-1.5,7-3,13.7-4.5,20.5c-2,0.1-3.4-0.8-5-1.3c-6.1-1.9-12.3-2.4-18.6-1
		c-9.5,2.1-14.9,8.6-16.9,17.8c-0.7,3-0.5,6.3-0.3,9.4c0.4,4.4,2.7,7.7,6.6,9.8c4,2.1,8.3,2.9,12.9,2.1c4-0.6,7.8-1.5,11.5-3
		c0.6-0.3,1.4-0.3,2.4-0.6c-0.1,1-0.1,1.8-0.2,2.6c-1.1,5.2-2.3,10.4-3.3,15.6c-0.4,1.9-1.3,3-3.1,3.5c-1.7,0.5-3.5,1-5.3,1.3
		c-9.1,1.6-18.2,1.7-27.1-1.6c-12.2-4.5-18.9-14.1-19.4-27.4c-0.2-5.6-0.3-11.1,1.2-16.5c4.5-16.8,15.2-27.6,32.1-32.1
		c6.4-1.7,13-2.5,19.7-2.2c5.2,0.3,10.3,0.9,15.3,2.2C502.9,253.9,503.4,254.3,504.4,254.7z"/>
	<path id="XMLID_4_" class="st0" d="M449.9,146.9c-1.6,7.4-3,14.2-4.5,21.1c-4.3,1.5-8.5,2.3-12.8,2.8c-1.8,0.2-3.6,0.5-5.3,0.7
		c-0.2,0-0.5,0.1-0.7,0.1c-6.5-0.9-13.1-1.4-19.2-4.4c-9-4.3-14.2-11.4-15.7-21.1c-1.1-6.7-1.2-13.5,0.5-20.1
		c4.1-16.5,13.9-27.7,30.4-32.7c8.1-2.4,16.3-3,24.7-2.5c4.6,0.3,9.2,1.4,14.1,2.1c0,0.9,0.1,1.5,0,2c-1.2,5.4-2.4,10.8-3.6,16.2
		c-0.1,0.6-0.3,1.2-0.5,1.7c-0.3,1.2-1.1,1.6-2.2,1.1c-3.6-1.7-7.5-2.5-11.5-2.9c-6.5-0.7-12.7,0.5-18.2,4.3
		c-4.8,3.3-7.4,8.2-8.7,13.7c-0.9,3.6-1,7.1-0.1,10.7c1.6,6.4,6.8,10.7,13.5,11c5.6,0.3,11-0.5,16.3-2.6
		C447.1,147.8,448.2,147.5,449.9,146.9z"/>
	<path id="XMLID_3_" class="st0" d="M789.1,109.8c-7.5,0-14.7,0-22,0c-4.2,19.9-8.4,39.6-12.6,59.5c-7.8,0.1-15.3,0.3-23.1-0.1
		c0.1-1.4,0.1-2.5,0.3-3.5c2.4-11.8,4.9-23.6,7.4-35.4c1.2-5.8,2.5-11.5,3.7-17.3c0.2-0.8,0.2-1.6,0.3-2.8
		c-3.7-0.5-7.1-0.2-10.6-0.2c-3.4-0.1-6.7,0-10.5-0.1c0.8-6.3,2.3-11.9,3.4-17.5c3-0.7,63.4-0.8,67.4-0.2
		C791.5,98,790.3,103.8,789.1,109.8z"/>
	<path id="XMLID_2_" class="st0" d="M488.2,172.4c7.6,0,14.9-0.2,22.1,0.1c1.3,1.7,0.6,3.4,0.3,4.8c-3.3,15.1-6.5,30.2-10.2,45.2
		c-2.6,10.4-8.4,18.7-18,23.8c-8,4.3-16.5,5.8-25.5,4.4c-2.5-0.4-4.9-1-7.4-1.5c-1.3-0.3-1.9-1-1.6-2.3c0.3-1.4,0.5-2.8,0.8-4.3
		c1-4.5,1.9-9,2.9-13.4c0.1-0.4,0.3-0.9,0.6-1.6c1.1,0.4,2,0.9,3,1.2c2.3,0.8,4.5,1.9,6.8,2.2c6,0.7,10.5-1.9,13.6-7
		c2.3-3.9,3.3-8.3,4.2-12.6c2.5-11.8,4.9-23.6,7.4-35.4C487.4,174.8,487.8,173.8,488.2,172.4z"/>
	<path id="XMLID_1_" class="st0" d="M524.3,330.3c-7.8,0.2-15.4,0.1-23.4,0.1c5.5-26.1,10.8-51.7,16.3-77.3c7.8,0,15.3,0,23,0
		c-0.1,1,0,1.9-0.2,2.8c-3.2,15.1-6.4,30.2-9.6,45.3c-1.8,8.4-3.5,16.8-5.3,25.1C525,327.5,524.7,328.7,524.3,330.3z"/>
</g>
</svg>
